<svg width="24" height="22" viewBox="0 0 24 22" fill="none" xmlns="http://www.w3.org/2000/svg">
<path d="M11.9129 0.987489C11.9261 0.964119 11.9387 0.954526 11.9486 0.948973C11.9611 0.942007 11.9788 0.936591 12 0.936591C12.0212 0.936591 12.0389 0.942007 12.0514 0.948974C12.0613 0.954526 12.0739 0.964119 12.0871 0.987489L15.1175 6.36391C15.3886 6.84495 15.8556 7.18423 16.3969 7.29344L22.4466 8.5141C22.4729 8.5194 22.4859 8.52847 22.4943 8.53618C22.5047 8.54585 22.5154 8.56105 22.5219 8.58122C22.5285 8.60139 22.5288 8.61993 22.526 8.63391C22.5238 8.64505 22.5186 8.66005 22.5004 8.6798L18.3236 13.2233C17.9499 13.6298 17.7715 14.1787 17.8349 14.7273L18.5435 20.8581C18.5465 20.8848 18.542 20.9 18.5372 20.9103C18.5312 20.9232 18.5201 20.938 18.5029 20.9505C18.4857 20.963 18.4682 20.969 18.4541 20.9707C18.4428 20.972 18.4269 20.9717 18.4025 20.9605L12.7907 18.3921C12.2886 18.1623 11.7114 18.1623 11.2093 18.3921L5.59749 20.9605C5.57309 20.9717 5.55722 20.972 5.54594 20.9707C5.53178 20.969 5.51425 20.963 5.49709 20.9505C5.47993 20.938 5.46877 20.9232 5.4628 20.9103C5.45805 20.9 5.45345 20.8848 5.45653 20.8581L6.16509 14.7273C6.22848 14.1787 6.05011 13.6298 5.6764 13.2233L1.49956 8.6798C1.4814 8.66005 1.47619 8.64505 1.47397 8.63391C1.47119 8.61993 1.47152 8.60139 1.47807 8.58122C1.48463 8.56105 1.49526 8.54585 1.50573 8.53618C1.51407 8.52847 1.5271 8.5194 1.5534 8.5141L7.60312 7.29344C8.14439 7.18423 8.61138 6.84495 8.88251 6.36391L11.9129 0.987489L11.1288 0.545574L11.9129 0.987489Z" stroke="#7B98FF" stroke-width="1.8"/>
</svg>
