<svg width="32" height="32" viewBox="0 0 32 32" fill="none" xmlns="http://www.w3.org/2000/svg">
<path d="M16 18.6667C16.2637 18.6667 16.5215 18.5885 16.7408 18.442C16.96 18.2954 17.1309 18.0872 17.2319 17.8436C17.3328 17.5999 17.3592 17.3319 17.3077 17.0732C17.2563 16.8146 17.1293 16.577 16.9428 16.3905C16.7564 16.2041 16.5188 16.0771 16.2601 16.0256C16.0015 15.9742 15.7334 16.0006 15.4898 16.1015C15.2461 16.2024 15.0379 16.3733 14.8914 16.5926C14.7449 16.8118 14.6667 17.0696 14.6667 17.3333C14.6667 17.687 14.8072 18.0261 15.0572 18.2761C15.3073 18.5262 15.6464 18.6667 16 18.6667ZM22.6667 18.6667C22.9304 18.6667 23.1882 18.5885 23.4074 18.442C23.6267 18.2954 23.7976 18.0872 23.8985 17.8436C23.9994 17.5999 24.0258 17.3319 23.9744 17.0732C23.923 16.8146 23.796 16.577 23.6095 16.3905C23.423 16.2041 23.1855 16.0771 22.9268 16.0256C22.6682 15.9742 22.4001 16.0006 22.1564 16.1015C21.9128 16.2024 21.7046 16.3733 21.5581 16.5926C21.4116 16.8118 21.3334 17.0696 21.3334 17.3333C21.3334 17.687 21.4738 18.0261 21.7239 18.2761C21.9739 18.5262 22.3131 18.6667 22.6667 18.6667ZM16 24C16.2637 24 16.5215 23.9218 16.7408 23.7753C16.96 23.6288 17.1309 23.4205 17.2319 23.1769C17.3328 22.9333 17.3592 22.6652 17.3077 22.4065C17.2563 22.1479 17.1293 21.9103 16.9428 21.7239C16.7564 21.5374 16.5188 21.4104 16.2601 21.359C16.0015 21.3075 15.7334 21.3339 15.4898 21.4348C15.2461 21.5357 15.0379 21.7066 14.8914 21.9259C14.7449 22.1452 14.6667 22.403 14.6667 22.6667C14.6667 23.0203 14.8072 23.3594 15.0572 23.6095C15.3073 23.8595 15.6464 24 16 24ZM22.6667 24C22.9304 24 23.1882 23.9218 23.4074 23.7753C23.6267 23.6288 23.7976 23.4205 23.8985 23.1769C23.9994 22.9333 24.0258 22.6652 23.9744 22.4065C23.923 22.1479 23.796 21.9103 23.6095 21.7239C23.423 21.5374 23.1855 21.4104 22.9268 21.359C22.6682 21.3075 22.4001 21.3339 22.1564 21.4348C21.9128 21.5357 21.7046 21.7066 21.5581 21.9259C21.4116 22.1452 21.3334 22.403 21.3334 22.6667C21.3334 23.0203 21.4738 23.3594 21.7239 23.6095C21.9739 23.8595 22.3131 24 22.6667 24ZM9.33335 18.6667C9.59706 18.6667 9.85485 18.5885 10.0741 18.442C10.2934 18.2954 10.4643 18.0872 10.5652 17.8436C10.6661 17.5999 10.6925 17.3319 10.6411 17.0732C10.5896 16.8146 10.4626 16.577 10.2762 16.3905C10.0897 16.2041 9.85212 16.0771 9.59347 16.0256C9.33483 15.9742 9.06674 16.0006 8.82311 16.1015C8.57947 16.2024 8.37124 16.3733 8.22473 16.5926C8.07822 16.8118 8.00002 17.0696 8.00002 17.3333C8.00002 17.687 8.1405 18.0261 8.39054 18.2761C8.64059 18.5262 8.97973 18.6667 9.33335 18.6667ZM25.3334 5.33333H24V4C24 3.64638 23.8595 3.30724 23.6095 3.05719C23.3594 2.80714 23.0203 2.66666 22.6667 2.66666C22.3131 2.66666 21.9739 2.80714 21.7239 3.05719C21.4738 3.30724 21.3334 3.64638 21.3334 4V5.33333H10.6667V4C10.6667 3.64638 10.5262 3.30724 10.2762 3.05719C10.0261 2.80714 9.68698 2.66666 9.33335 2.66666C8.97973 2.66666 8.64059 2.80714 8.39054 3.05719C8.1405 3.30724 8.00002 3.64638 8.00002 4V5.33333H6.66669C5.60582 5.33333 4.58841 5.75476 3.83826 6.5049C3.08811 7.25505 2.66669 8.27247 2.66669 9.33333V25.3333C2.66669 26.3942 3.08811 27.4116 3.83826 28.1618C4.58841 28.9119 5.60582 29.3333 6.66669 29.3333H25.3334C26.3942 29.3333 27.4116 28.9119 28.1618 28.1618C28.9119 27.4116 29.3334 26.3942 29.3334 25.3333V9.33333C29.3334 8.27247 28.9119 7.25505 28.1618 6.5049C27.4116 5.75476 26.3942 5.33333 25.3334 5.33333ZM26.6667 25.3333C26.6667 25.687 26.5262 26.0261 26.2762 26.2761C26.0261 26.5262 25.687 26.6667 25.3334 26.6667H6.66669C6.31307 26.6667 5.97393 26.5262 5.72388 26.2761C5.47383 26.0261 5.33335 25.687 5.33335 25.3333V13.3333H26.6667V25.3333ZM26.6667 10.6667H5.33335V9.33333C5.33335 8.97971 5.47383 8.64057 5.72388 8.39052C5.97393 8.14047 6.31307 8 6.66669 8H25.3334C25.687 8 26.0261 8.14047 26.2762 8.39052C26.5262 8.64057 26.6667 8.97971 26.6667 9.33333V10.6667ZM9.33335 24C9.59706 24 9.85485 23.9218 10.0741 23.7753C10.2934 23.6288 10.4643 23.4205 10.5652 23.1769C10.6661 22.9333 10.6925 22.6652 10.6411 22.4065C10.5896 22.1479 10.4626 21.9103 10.2762 21.7239C10.0897 21.5374 9.85212 21.4104 9.59347 21.359C9.33483 21.3075 9.06674 21.3339 8.82311 21.4348C8.57947 21.5357 8.37124 21.7066 8.22473 21.9259C8.07822 22.1452 8.00002 22.403 8.00002 22.6667C8.00002 23.0203 8.1405 23.3594 8.39054 23.6095C8.64059 23.8595 8.97973 24 9.33335 24Z" fill="white"/>
</svg>
