<svg width="24" height="24" viewBox="0 0 24 24" fill="none" xmlns="http://www.w3.org/2000/svg">
<path d="M12 5.28994e-05C11.5682 5.28994e-05 11.1467 0.157749 10.822 0.482567L8.41196 2.91914C8.28173 2.98941 8.17207 3.09054 8.09154 3.21396L0.487083 10.8202C0.175167 11.133 0 11.5568 0 11.9986C0 12.4405 0.175167 12.8643 0.487083 13.1771L10.822 23.5156C11.1356 23.8259 11.5589 24 12 24C12.4411 24 12.8644 23.8259 13.178 23.5156L23.5129 13.1771C23.8248 12.8643 24 12.4405 24 11.9986C24 11.5568 23.8248 11.133 23.5129 10.8202L13.1772 0.48171C13.0226 0.327402 12.839 0.205357 12.6369 0.12267C12.4348 0.039983 12.2183 -0.00169698 12 5.28994e-05ZM12 1.7407L22.2544 11.9986L12 22.2566L1.74564 11.9986L8.84119 4.90147L10.3405 6.4013C10.302 6.54985 10.2839 6.70295 10.2865 6.85638C10.2865 7.48888 10.6309 8.03139 11.1433 8.32964V15.6676C10.6309 15.9659 10.2865 16.5075 10.2865 17.1409C10.2865 17.5955 10.467 18.0315 10.7884 18.3529C11.1097 18.6744 11.5456 18.855 12 18.855C12.4544 18.855 12.8903 18.6744 13.2116 18.3529C13.533 18.0315 13.7135 17.5955 13.7135 17.1409C13.7135 16.5084 13.3691 15.9659 12.8567 15.6676V8.94585L15.4809 11.5701C15.4154 11.8235 15.4087 12.0885 15.4614 12.3448C15.5142 12.6011 15.6249 12.8419 15.7851 13.0488C15.9453 13.2557 16.1508 13.4231 16.3857 13.5381C16.6207 13.6532 16.8789 13.713 17.1405 13.7127C18.0863 13.7127 18.8531 12.9457 18.8531 11.9986C18.8535 11.7369 18.7939 11.4785 18.6789 11.2434C18.5639 11.0082 18.3965 10.8026 18.1897 10.6422C17.9829 10.4818 17.7421 10.371 17.4858 10.3182C17.2295 10.2654 16.9646 10.2721 16.7112 10.3377L13.6595 7.28491C13.7251 7.03157 13.7318 6.76657 13.679 6.51024C13.6263 6.25392 13.5156 6.01309 13.3554 5.80622C13.1951 5.59936 12.9897 5.43196 12.7547 5.31687C12.5198 5.20178 12.2616 5.14207 12 5.1423C11.8469 5.13972 11.6942 5.15788 11.5459 5.19629L10.0466 3.69647L12 1.7407Z" fill="#7B98FF"/>
</svg>
