<svg width="24" height="24" viewBox="0 0 24 24" fill="none" xmlns="http://www.w3.org/2000/svg">
<path d="M12 10.5714C10.8634 10.5714 9.77328 10.1199 8.96955 9.31617C8.16582 8.51244 7.71429 7.42236 7.71429 6.28571C7.71429 5.14907 8.16582 4.05898 8.96955 3.25526C9.77328 2.45153 10.8634 2 12 2C13.1367 2 14.2267 2.45153 15.0305 3.25526C15.8342 4.05898 16.2857 5.14907 16.2857 6.28571C16.2857 7.42236 15.8342 8.51244 15.0305 9.31617C14.2267 10.1199 13.1367 10.5714 12 10.5714Z" stroke="white" stroke-width="2" stroke-linecap="round"/>
<path d="M3.42859 22V20.5714C3.42859 19.0559 4.03063 17.6025 5.10226 16.5308C6.1739 15.4592 7.62735 14.8571 9.14287 14.8571H14.8572C16.3727 14.8571 17.8261 15.4592 18.8978 16.5308C19.9694 17.6025 20.5714 19.0559 20.5714 20.5714V22" stroke="white" stroke-width="2" stroke-linecap="round"/>
</svg>
