<svg width="220" height="167" viewBox="0 0 220 167" fill="none" xmlns="http://www.w3.org/2000/svg">
<circle cx="186" cy="133" r="17" fill="#FFF500"/>
<path d="M183.711 130V141.062C183.703 142.445 183.094 143.172 181.984 143.172C180.922 143.172 180.273 142.492 180.234 141.25H176.383C176.367 144.695 178.773 146.219 181.766 146.219C185.156 146.219 187.516 144.18 187.523 141.062V130H183.711ZM197.83 134.797H201.533C201.501 131.805 199.119 129.781 195.4 129.781C191.744 129.781 189.111 131.773 189.134 134.75C189.126 137.18 190.83 138.547 193.595 139.18L195.267 139.57C197.025 139.977 197.814 140.453 197.83 141.352C197.814 142.328 196.9 143.008 195.345 143.008C193.634 143.008 192.509 142.211 192.423 140.672H188.72C188.767 144.414 191.369 146.203 195.392 146.203C199.376 146.203 201.736 144.398 201.751 141.359C201.736 138.805 200.009 137.242 196.853 136.547L195.478 136.234C194.025 135.922 193.103 135.437 193.134 134.484C193.142 133.609 193.892 132.977 195.392 132.977C196.9 132.977 197.728 133.656 197.83 134.797Z" fill="#26232D"/>
<rect opacity="0.13" width="220" height="167" rx="20" fill="#FFE600"/>
</svg>
