<svg width="220" height="167" viewBox="0 0 220 167" fill="none" xmlns="http://www.w3.org/2000/svg">
<rect opacity="0.1" width="220" height="167" rx="20" fill="#3775A8"/>
<circle cx="189" cy="133" r="17" fill="#333333"/>
<path d="M188.89 121.007C182.305 121.007 182.717 123.764 182.717 123.764L182.724 126.619H189.007V127.477H180.228C180.228 127.477 176.015 127.015 176.015 133.429C176.015 139.842 179.692 139.614 179.692 139.614H181.887V136.638C181.887 136.638 181.769 133.088 185.506 133.088H191.738C191.738 133.088 195.239 133.143 195.239 129.822V124.33C195.239 124.33 195.771 121.007 188.89 121.007ZM185.425 122.928C185.574 122.927 185.721 122.956 185.858 123.01C185.995 123.065 186.12 123.145 186.225 123.247C186.33 123.348 186.413 123.469 186.47 123.601C186.527 123.733 186.556 123.875 186.556 124.019C186.556 124.162 186.527 124.304 186.47 124.436C186.413 124.569 186.33 124.689 186.225 124.791C186.12 124.892 185.995 124.972 185.858 125.027C185.721 125.082 185.574 125.11 185.425 125.11C185.277 125.11 185.13 125.082 184.993 125.027C184.855 124.972 184.731 124.892 184.626 124.791C184.521 124.689 184.437 124.569 184.381 124.436C184.324 124.304 184.295 124.162 184.295 124.019C184.295 123.875 184.324 123.733 184.381 123.601C184.437 123.469 184.521 123.348 184.626 123.247C184.731 123.145 184.855 123.065 184.993 123.01C185.13 122.956 185.277 122.927 185.425 122.928V122.928Z" fill="url(#paint0_linear)"/>
<path d="M189.077 145.914C195.661 145.914 195.25 143.158 195.25 143.158L195.243 140.302H188.959V139.445H197.739C197.739 139.445 201.952 139.906 201.952 133.493C201.952 127.079 198.274 127.307 198.274 127.307H196.08V130.283C196.08 130.283 196.198 133.833 192.461 133.833H186.229C186.229 133.833 182.727 133.778 182.727 137.1V142.591C182.727 142.591 182.196 145.914 189.077 145.914H189.077ZM192.542 143.994C192.393 143.994 192.246 143.966 192.109 143.911C191.972 143.856 191.847 143.776 191.742 143.675C191.637 143.573 191.554 143.453 191.497 143.321C191.44 143.188 191.411 143.046 191.411 142.903C191.411 142.76 191.44 142.618 191.497 142.485C191.554 142.353 191.637 142.232 191.742 142.131C191.847 142.03 191.972 141.949 192.109 141.894C192.246 141.84 192.393 141.811 192.542 141.812C192.69 141.811 192.837 141.84 192.974 141.894C193.112 141.949 193.236 142.03 193.341 142.131C193.446 142.232 193.529 142.353 193.586 142.485C193.643 142.618 193.672 142.759 193.672 142.903C193.672 143.046 193.643 143.188 193.586 143.321C193.529 143.453 193.446 143.573 193.341 143.675C193.236 143.776 193.112 143.856 192.974 143.911C192.837 143.966 192.69 143.994 192.542 143.994V143.994Z" fill="url(#paint1_linear)"/>
<defs>
<linearGradient id="paint0_linear" x1="178.507" y1="123.247" x2="190.912" y2="135.969" gradientUnits="userSpaceOnUse">
<stop stop-color="#387EB8"/>
<stop offset="1" stop-color="#366994"/>
</linearGradient>
<linearGradient id="paint1_linear" x1="186.397" y1="131.135" x2="199.74" y2="144.202" gradientUnits="userSpaceOnUse">
<stop stop-color="#FFE052"/>
<stop offset="1" stop-color="#FFC331"/>
</linearGradient>
</defs>
</svg>
