<svg width="24" height="24" viewBox="0 0 24 24" fill="none" xmlns="http://www.w3.org/2000/svg">
<path d="M19.5045 9V8.994C19.5045 8.19835 19.1884 7.43529 18.6258 6.87268C18.0632 6.31007 17.3002 5.994 16.5045 5.994H9.2625L7.5975 4.6635C7.46454 4.55753 7.29952 4.49988 7.1295 4.5H4.5C3.70435 4.5 2.94129 4.81607 2.37868 5.37868C1.81607 5.94129 1.5 6.70435 1.5 7.5V16.5C1.5 17.2956 1.81607 18.0587 2.37868 18.6213C2.94129 19.1839 3.70435 19.5 4.5 19.5H18.375C18.8618 19.5 19.3355 19.3421 19.725 19.05C20.1145 18.7579 20.3987 18.3474 20.535 17.88L22.29 11.88C22.3878 11.5447 22.4062 11.1912 22.3437 10.8475C22.2812 10.5038 22.1396 10.1794 21.93 9.9C21.7204 9.62056 21.4487 9.39375 21.1362 9.23754C20.8238 9.08133 20.4793 9 20.13 9H19.5045ZM4.5 6H6.867L8.532 7.3305C8.66436 7.43669 8.82881 7.49486 8.9985 7.4955H16.5045C16.9023 7.4955 17.2839 7.65354 17.5652 7.93484C17.8465 8.21614 18.0045 8.59768 18.0045 8.9955V9H6.375C5.88817 9 5.41447 9.1579 5.025 9.45C4.63553 9.7421 4.35131 10.1526 4.215 10.62L3 14.7855V7.5C3 7.10218 3.15804 6.72064 3.43934 6.43934C3.72064 6.15804 4.10218 6 4.5 6ZM5.655 11.04C5.70044 10.8842 5.79518 10.7474 5.925 10.65C6.05482 10.5526 6.21272 10.5 6.375 10.5H20.13C20.2464 10.5 20.3613 10.5271 20.4654 10.5792C20.5696 10.6313 20.6601 10.7069 20.73 10.8C20.7999 10.8931 20.8471 11.0013 20.8679 11.1158C20.8887 11.2304 20.8826 11.3482 20.85 11.46L19.095 17.46C19.0496 17.6158 18.9548 17.7526 18.825 17.85C18.6952 17.9474 18.5373 18 18.375 18H4.6245C4.50807 18 4.39323 17.9729 4.28909 17.9208C4.18495 17.8687 4.09436 17.7931 4.0245 17.7C3.95464 17.6069 3.90743 17.4987 3.8866 17.3842C3.86577 17.2696 3.8719 17.1518 3.9045 17.04L5.655 11.04Z" fill="#7B98FF"/>
</svg>
