<svg width="207" height="76" viewBox="0 0 207 76" fill="none" xmlns="http://www.w3.org/2000/svg">
<rect width="207" height="76" rx="6" fill="#25232C"/>
<path d="M0 5C0 2.23858 2.23858 0 5 0H7V76H5C2.23858 76 0 73.7614 0 71V5Z" fill="#7C56E7"/>
<g opacity="0.12">
<path d="M30 58.6667C26.3181 58.6667 23.3334 55.6819 23.3334 52C23.3334 48.3181 26.3181 45.3333 30 45.3333C33.6819 45.3333 36.6667 48.3181 36.6667 52C36.6627 55.6802 33.6803 58.6626 30 58.6667ZM30 46.6667C27.0545 46.6667 24.6667 49.0545 24.6667 52C24.6667 54.9455 27.0545 57.3333 30 57.3333C32.9456 57.3333 35.3334 54.9455 35.3334 52C35.3301 49.0559 32.9442 46.67 30 46.6667ZM33.3334 52.6667H29.3334V48.6667H30.6667V51.3333H33.3334V52.6667Z" fill="white"/>
</g>
</svg>
